<mxfile host="app.diagrams.net" agent="Mozilla/5.0 (Windows NT 10.0; Win64; x64) AppleWebKit/537.36 (KHTML, like Gecko) Chrome/131.0.0.0 Safari/537.36" version="24.7.17">
  <diagram name="Page-1" id="1gXPAcJVwVqQW8jz70Xc">
    <mxGraphModel dx="744" dy="617" grid="1" gridSize="10" guides="1" tooltips="1" connect="1" arrows="1" fold="1" page="1" pageScale="1" pageWidth="827" pageHeight="1169" math="0" shadow="0">
      <root>
        <mxCell id="0" />
        <mxCell id="1" parent="0" />
        <mxCell id="9t9CXjkUha9Di0obk40k-4" value="" style="edgeStyle=orthogonalEdgeStyle;rounded=0;orthogonalLoop=1;jettySize=auto;html=1;" edge="1" parent="1" source="9t9CXjkUha9Di0obk40k-1" target="9t9CXjkUha9Di0obk40k-2">
          <mxGeometry relative="1" as="geometry" />
        </mxCell>
        <mxCell id="9t9CXjkUha9Di0obk40k-1" value="Start" style="ellipse;whiteSpace=wrap;html=1;" vertex="1" parent="1">
          <mxGeometry x="270" y="50" width="120" height="60" as="geometry" />
        </mxCell>
        <mxCell id="9t9CXjkUha9Di0obk40k-34" value="" style="edgeStyle=orthogonalEdgeStyle;rounded=0;orthogonalLoop=1;jettySize=auto;html=1;" edge="1" parent="1" source="9t9CXjkUha9Di0obk40k-2" target="9t9CXjkUha9Di0obk40k-33">
          <mxGeometry relative="1" as="geometry" />
        </mxCell>
        <mxCell id="9t9CXjkUha9Di0obk40k-2" value="Display Memory State" style="html=1;dashed=0;whiteSpace=wrap;" vertex="1" parent="1">
          <mxGeometry x="260" y="150" width="140" height="50" as="geometry" />
        </mxCell>
        <mxCell id="9t9CXjkUha9Di0obk40k-10" value="" style="edgeStyle=orthogonalEdgeStyle;rounded=0;orthogonalLoop=1;jettySize=auto;html=1;" edge="1" parent="1" source="9t9CXjkUha9Di0obk40k-3" target="9t9CXjkUha9Di0obk40k-9">
          <mxGeometry relative="1" as="geometry" />
        </mxCell>
        <mxCell id="9t9CXjkUha9Di0obk40k-11" value="" style="edgeStyle=orthogonalEdgeStyle;rounded=0;orthogonalLoop=1;jettySize=auto;html=1;" edge="1" parent="1" source="9t9CXjkUha9Di0obk40k-3" target="9t9CXjkUha9Di0obk40k-6">
          <mxGeometry relative="1" as="geometry" />
        </mxCell>
        <mxCell id="9t9CXjkUha9Di0obk40k-3" value="If Allocate" style="rhombus;whiteSpace=wrap;html=1;" vertex="1" parent="1">
          <mxGeometry x="275" y="330" width="110" height="110" as="geometry" />
        </mxCell>
        <mxCell id="9t9CXjkUha9Di0obk40k-15" value="" style="edgeStyle=orthogonalEdgeStyle;rounded=0;orthogonalLoop=1;jettySize=auto;html=1;" edge="1" parent="1" source="9t9CXjkUha9Di0obk40k-6" target="9t9CXjkUha9Di0obk40k-14">
          <mxGeometry relative="1" as="geometry" />
        </mxCell>
        <mxCell id="9t9CXjkUha9Di0obk40k-6" value="Allocation Logic" style="rounded=0;whiteSpace=wrap;html=1;" vertex="1" parent="1">
          <mxGeometry x="270" y="500" width="120" height="60" as="geometry" />
        </mxCell>
        <mxCell id="9t9CXjkUha9Di0obk40k-8" value="" style="edgeStyle=orthogonalEdgeStyle;rounded=0;orthogonalLoop=1;jettySize=auto;html=1;exitX=0.5;exitY=1;exitDx=0;exitDy=0;" edge="1" parent="1" source="9t9CXjkUha9Di0obk40k-33" target="9t9CXjkUha9Di0obk40k-3">
          <mxGeometry relative="1" as="geometry">
            <mxPoint x="330" y="300" as="sourcePoint" />
          </mxGeometry>
        </mxCell>
        <mxCell id="9t9CXjkUha9Di0obk40k-30" value="" style="edgeStyle=orthogonalEdgeStyle;rounded=0;orthogonalLoop=1;jettySize=auto;html=1;" edge="1" parent="1" source="9t9CXjkUha9Di0obk40k-9" target="9t9CXjkUha9Di0obk40k-29">
          <mxGeometry relative="1" as="geometry" />
        </mxCell>
        <mxCell id="9t9CXjkUha9Di0obk40k-38" value="" style="edgeStyle=orthogonalEdgeStyle;rounded=0;orthogonalLoop=1;jettySize=auto;html=1;" edge="1" parent="1" source="9t9CXjkUha9Di0obk40k-9" target="9t9CXjkUha9Di0obk40k-37">
          <mxGeometry relative="1" as="geometry" />
        </mxCell>
        <mxCell id="9t9CXjkUha9Di0obk40k-9" value="If Deallocate" style="rhombus;whiteSpace=wrap;html=1;" vertex="1" parent="1">
          <mxGeometry x="455" y="330" width="110" height="110" as="geometry" />
        </mxCell>
        <mxCell id="9t9CXjkUha9Di0obk40k-12" value="Yes" style="text;html=1;align=center;verticalAlign=middle;resizable=0;points=[];autosize=1;strokeColor=none;fillColor=none;" vertex="1" parent="1">
          <mxGeometry x="330" y="450" width="40" height="30" as="geometry" />
        </mxCell>
        <mxCell id="9t9CXjkUha9Di0obk40k-13" value="No" style="text;html=1;align=center;verticalAlign=middle;resizable=0;points=[];autosize=1;strokeColor=none;fillColor=none;" vertex="1" parent="1">
          <mxGeometry x="400" y="358" width="40" height="30" as="geometry" />
        </mxCell>
        <mxCell id="9t9CXjkUha9Di0obk40k-17" value="" style="edgeStyle=orthogonalEdgeStyle;rounded=0;orthogonalLoop=1;jettySize=auto;html=1;" edge="1" parent="1" source="9t9CXjkUha9Di0obk40k-14" target="9t9CXjkUha9Di0obk40k-16">
          <mxGeometry relative="1" as="geometry" />
        </mxCell>
        <mxCell id="9t9CXjkUha9Di0obk40k-14" value="Find Largest free block" style="rounded=0;whiteSpace=wrap;html=1;" vertex="1" parent="1">
          <mxGeometry x="270" y="610" width="120" height="60" as="geometry" />
        </mxCell>
        <mxCell id="9t9CXjkUha9Di0obk40k-19" value="" style="edgeStyle=orthogonalEdgeStyle;rounded=0;orthogonalLoop=1;jettySize=auto;html=1;" edge="1" parent="1" source="9t9CXjkUha9Di0obk40k-16" target="9t9CXjkUha9Di0obk40k-18">
          <mxGeometry relative="1" as="geometry" />
        </mxCell>
        <mxCell id="9t9CXjkUha9Di0obk40k-43" value="Yes" style="edgeLabel;html=1;align=center;verticalAlign=middle;resizable=0;points=[];" vertex="1" connectable="0" parent="9t9CXjkUha9Di0obk40k-19">
          <mxGeometry x="-0.5" y="5" relative="1" as="geometry">
            <mxPoint x="5" y="5" as="offset" />
          </mxGeometry>
        </mxCell>
        <mxCell id="9t9CXjkUha9Di0obk40k-41" value="" style="edgeStyle=orthogonalEdgeStyle;rounded=0;orthogonalLoop=1;jettySize=auto;html=1;" edge="1" parent="1" source="9t9CXjkUha9Di0obk40k-16" target="9t9CXjkUha9Di0obk40k-40">
          <mxGeometry relative="1" as="geometry" />
        </mxCell>
        <mxCell id="9t9CXjkUha9Di0obk40k-16" value="If&amp;nbsp;&lt;div&gt;Suitable block&amp;nbsp;&lt;/div&gt;&lt;div&gt;found?&lt;/div&gt;" style="rhombus;whiteSpace=wrap;html=1;rounded=0;" vertex="1" parent="1">
          <mxGeometry x="275" y="710" width="110" height="90" as="geometry" />
        </mxCell>
        <mxCell id="9t9CXjkUha9Di0obk40k-21" value="" style="edgeStyle=orthogonalEdgeStyle;rounded=0;orthogonalLoop=1;jettySize=auto;html=1;" edge="1" parent="1" source="9t9CXjkUha9Di0obk40k-18" target="9t9CXjkUha9Di0obk40k-20">
          <mxGeometry relative="1" as="geometry" />
        </mxCell>
        <mxCell id="9t9CXjkUha9Di0obk40k-18" value="Allocate Process&lt;div&gt;Update Memory&lt;/div&gt;" style="whiteSpace=wrap;html=1;rounded=0;" vertex="1" parent="1">
          <mxGeometry x="270" y="860" width="120" height="60" as="geometry" />
        </mxCell>
        <mxCell id="9t9CXjkUha9Di0obk40k-47" value="" style="edgeStyle=orthogonalEdgeStyle;rounded=0;orthogonalLoop=1;jettySize=auto;html=1;" edge="1" parent="1" source="9t9CXjkUha9Di0obk40k-20" target="9t9CXjkUha9Di0obk40k-46">
          <mxGeometry relative="1" as="geometry" />
        </mxCell>
        <mxCell id="9t9CXjkUha9Di0obk40k-20" value="&lt;span style=&quot;background-color: initial;&quot;&gt;Update Memory State&lt;/span&gt;" style="whiteSpace=wrap;html=1;rounded=0;" vertex="1" parent="1">
          <mxGeometry x="265" y="960" width="130" height="60" as="geometry" />
        </mxCell>
        <mxCell id="9t9CXjkUha9Di0obk40k-27" style="edgeStyle=orthogonalEdgeStyle;rounded=0;orthogonalLoop=1;jettySize=auto;html=1;" edge="1" parent="1" source="9t9CXjkUha9Di0obk40k-24" target="9t9CXjkUha9Di0obk40k-20">
          <mxGeometry relative="1" as="geometry">
            <mxPoint x="400" y="990" as="targetPoint" />
            <Array as="points">
              <mxPoint x="510" y="990" />
            </Array>
          </mxGeometry>
        </mxCell>
        <mxCell id="9t9CXjkUha9Di0obk40k-24" value="Free Memory&lt;div&gt;Update Block State&lt;/div&gt;" style="whiteSpace=wrap;html=1;" vertex="1" parent="1">
          <mxGeometry x="450" y="610" width="120" height="55" as="geometry" />
        </mxCell>
        <mxCell id="9t9CXjkUha9Di0obk40k-31" style="edgeStyle=orthogonalEdgeStyle;rounded=0;orthogonalLoop=1;jettySize=auto;html=1;entryX=0.5;entryY=0;entryDx=0;entryDy=0;" edge="1" parent="1" source="9t9CXjkUha9Di0obk40k-29" target="9t9CXjkUha9Di0obk40k-24">
          <mxGeometry relative="1" as="geometry" />
        </mxCell>
        <mxCell id="9t9CXjkUha9Di0obk40k-29" value="Deallocation Logic" style="whiteSpace=wrap;html=1;" vertex="1" parent="1">
          <mxGeometry x="450" y="500" width="120" height="55" as="geometry" />
        </mxCell>
        <mxCell id="9t9CXjkUha9Di0obk40k-32" value="Yes" style="text;html=1;align=center;verticalAlign=middle;resizable=0;points=[];autosize=1;strokeColor=none;fillColor=none;" vertex="1" parent="1">
          <mxGeometry x="510" y="450" width="40" height="30" as="geometry" />
        </mxCell>
        <mxCell id="9t9CXjkUha9Di0obk40k-33" value="User input:&amp;nbsp;&lt;div&gt;(Allocate,&amp;nbsp;&lt;span style=&quot;background-color: initial;&quot;&gt;Deallocate or&lt;/span&gt;&lt;span style=&quot;background-color: initial;&quot;&gt;&amp;nbsp;Exit)&lt;/span&gt;&lt;/div&gt;" style="shape=parallelogram;perimeter=parallelogramPerimeter;whiteSpace=wrap;html=1;fixedSize=1;" vertex="1" parent="1">
          <mxGeometry x="220" y="230" width="220" height="60" as="geometry" />
        </mxCell>
        <mxCell id="9t9CXjkUha9Di0obk40k-48" style="edgeStyle=orthogonalEdgeStyle;rounded=0;orthogonalLoop=1;jettySize=auto;html=1;entryX=1;entryY=0.5;entryDx=0;entryDy=0;" edge="1" parent="1" source="9t9CXjkUha9Di0obk40k-37" target="9t9CXjkUha9Di0obk40k-46">
          <mxGeometry relative="1" as="geometry">
            <Array as="points">
              <mxPoint x="680" y="1128" />
            </Array>
          </mxGeometry>
        </mxCell>
        <mxCell id="9t9CXjkUha9Di0obk40k-37" value="Exit" style="rhombus;whiteSpace=wrap;html=1;" vertex="1" parent="1">
          <mxGeometry x="620" y="330" width="110" height="110" as="geometry" />
        </mxCell>
        <mxCell id="9t9CXjkUha9Di0obk40k-39" value="No" style="text;html=1;align=center;verticalAlign=middle;resizable=0;points=[];autosize=1;strokeColor=none;fillColor=none;" vertex="1" parent="1">
          <mxGeometry x="570" y="358" width="40" height="30" as="geometry" />
        </mxCell>
        <mxCell id="9t9CXjkUha9Di0obk40k-45" style="edgeStyle=orthogonalEdgeStyle;rounded=0;orthogonalLoop=1;jettySize=auto;html=1;" edge="1" parent="1" source="9t9CXjkUha9Di0obk40k-40">
          <mxGeometry relative="1" as="geometry">
            <mxPoint x="80" y="755" as="targetPoint" />
          </mxGeometry>
        </mxCell>
        <mxCell id="9t9CXjkUha9Di0obk40k-40" value="Error: not found any block" style="whiteSpace=wrap;html=1;rounded=0;" vertex="1" parent="1">
          <mxGeometry x="120" y="725" width="120" height="60" as="geometry" />
        </mxCell>
        <mxCell id="9t9CXjkUha9Di0obk40k-42" value="No" style="text;html=1;align=center;verticalAlign=middle;resizable=0;points=[];autosize=1;strokeColor=none;fillColor=none;" vertex="1" parent="1">
          <mxGeometry x="380" y="728" width="40" height="30" as="geometry" />
        </mxCell>
        <mxCell id="9t9CXjkUha9Di0obk40k-50" value="" style="edgeStyle=orthogonalEdgeStyle;rounded=0;orthogonalLoop=1;jettySize=auto;html=1;" edge="1" parent="1" source="9t9CXjkUha9Di0obk40k-46" target="9t9CXjkUha9Di0obk40k-49">
          <mxGeometry relative="1" as="geometry" />
        </mxCell>
        <mxCell id="9t9CXjkUha9Di0obk40k-46" value="Final Memory State" style="whiteSpace=wrap;html=1;rounded=0;" vertex="1" parent="1">
          <mxGeometry x="270" y="1098" width="120" height="60" as="geometry" />
        </mxCell>
        <mxCell id="9t9CXjkUha9Di0obk40k-49" value="End" style="ellipse;whiteSpace=wrap;html=1;rounded=0;" vertex="1" parent="1">
          <mxGeometry x="270" y="1228" width="120" height="62" as="geometry" />
        </mxCell>
      </root>
    </mxGraphModel>
  </diagram>
</mxfile>
